<?xml version="1.0" encoding="utf-8"?>
<!-- Generator: Adobe Illustrator 21.0.0, SVG Export Plug-In . SVG Version: 6.00 Build 0)  -->
<!DOCTYPE svg PUBLIC "-//W3C//DTD SVG 1.0//EN" "http://www.w3.org/TR/2001/REC-SVG-20010904/DTD/svg10.dtd">
<svg version="1.0" id="Layer_1" xmlns="http://www.w3.org/2000/svg" xmlns:xlink="http://www.w3.org/1999/xlink" x="0px" y="0px"
	 width="432px" height="432px" viewBox="0 0 432 432" enable-background="new 0 0 432 432" xml:space="preserve">
<polygon fill="none" stroke="#000000" stroke-width="2" stroke-miterlimit="10" points="49,93 49,121.5 367.5,125 367.5,90.5 "/>
<path fill="none" stroke="#000000" stroke-width="2" stroke-miterlimit="10" d="M52.5,121.5L49,341c0,0,26.5-4,62-3s156,1.5,188-14
	s60-32,84.5-56.5c0,0-20-81.5-19.5-142.5"/>
<path fill="none" stroke="#000000" stroke-width="2" stroke-miterlimit="10" d="M383.5,267.5c0,0-24-35-73.5-43.5
	c0,0,4.6,83.9-53.4,109.4"/>
<path fill="none" stroke="#000000" stroke-width="2" stroke-miterlimit="10" d="M373.3,277.1c0,0-1.6,43.7,2.7,53.7L267.3,332"/>
<path fill="none" stroke="#000000" stroke-width="2" stroke-miterlimit="10" d="M52.1,168.5c0,0,249.4,0,314.2,0"/>
<path fill="none" stroke="#000000" stroke-width="2" stroke-miterlimit="10" d="M52.1,200.5c0,0,260.4,0,318.2,0"/>
<path fill="none" stroke="#000000" stroke-width="2" stroke-miterlimit="10" d="M50.7,232.5c24.3,0,169.5,0,259.3,0"/>
<path fill="none" stroke="#000000" stroke-width="2" stroke-miterlimit="10" d="M338.5,232.5c17.7,0,31.2,0,38,0"/>
<path fill="none" stroke="#000000" stroke-width="2" stroke-miterlimit="10" d="M49.7,264.5c20.7,0,165.2,0,256.5,0"/>
<path fill="none" stroke="#000000" stroke-width="2" stroke-miterlimit="10" d="M49.5,296.5c19,0,153.9,0,245.8,0"/>
<line fill="none" stroke="#000000" stroke-width="2" stroke-miterlimit="10" x1="97.5" y1="168.5" x2="97.5" y2="337.9"/>
<line fill="none" stroke="#000000" stroke-width="2" stroke-miterlimit="10" x1="142.9" y1="168.5" x2="142.9" y2="337.9"/>
<line fill="none" stroke="#000000" stroke-width="2" stroke-miterlimit="10" x1="193.4" y1="168.5" x2="193.4" y2="337.9"/>
<path fill="none" stroke="#000000" stroke-width="2" stroke-miterlimit="10" d="M234.7,168.5c0,0,0,143.5,0,166.3"/>
<path fill="none" stroke="#000000" stroke-width="2" stroke-miterlimit="10" d="M332.7,168.5c0,0-3.3,39,4.5,64"/>
<path fill="none" stroke="#000000" stroke-width="2" stroke-miterlimit="10" d="M284.3,168.5c0,0-3.4,81.2,3.6,139.4"/>
</svg>
