<svg xmlns="http://www.w3.org/2000/svg" viewBox="0 0 296.21 252.75"><defs><style>.cls-1{fill:#231f20;}</style></defs><g id="Layer_2" data-name="Layer 2"><g id="Layer_4" data-name="Layer 4"><path class="cls-1" d="M4.43,128.9A4.17,4.17,0,0,1,.29,125a123.33,123.33,0,0,1,.24-19.88,4.14,4.14,0,0,1,4.13-3.77,2.55,2.55,0,0,1,.39,0,4.13,4.13,0,0,1,3.75,4.52,115.94,115.94,0,0,0-.22,18.54,4.17,4.17,0,0,1-3.86,4.43Z"/><path class="cls-1" d="M83.89,11.05a4.15,4.15,0,0,1-1-8.18A99.53,99.53,0,0,1,102.73,0h.17a4.16,4.16,0,0,1,2.43,7.53,4.24,4.24,0,0,1-2.26.78,90.2,90.2,0,0,0-18.16,2.62,4.44,4.44,0,0,1-1,.12Z"/><path class="cls-1" d="M23.53,55.79a4.13,4.13,0,0,1-2.28-.69,4.17,4.17,0,0,1-1.19-5.75A122.35,122.35,0,0,1,32.31,33.68a4.16,4.16,0,0,1,6.11,5.64A113.08,113.08,0,0,0,27,53.92,4.11,4.11,0,0,1,26,55,4.18,4.18,0,0,1,23.53,55.79Z"/><path class="cls-1" d="M96.23,145.8a4.1,4.1,0,0,1-2.62-.94,64.8,64.8,0,0,1-8.27-8.05c-1-1.13-1.9-2.31-2.76-3.5s-1.78-2.58-2.56-3.9a4.15,4.15,0,0,1-.46-3.15,4.16,4.16,0,0,1,7.6-1.1c.66,1.1,1.38,2.21,2.16,3.28s1.52,2,2.32,2.95a57.05,57.05,0,0,0,7.22,7,4.16,4.16,0,0,1-2.63,7.38Z"/><path class="cls-1" d="M49.5,27.65A4.15,4.15,0,0,1,47,20.2,99.18,99.18,0,0,1,64,9.69a4.19,4.19,0,0,1,1.8-.41,4.16,4.16,0,0,1,2.45,7.52,5.14,5.14,0,0,1-.64.38A90.36,90.36,0,0,0,52,26.8a4.19,4.19,0,0,1-2.53.85Z"/><path class="cls-1" d="M140.6,14.42a4.21,4.21,0,0,1-1.48-.27A90,90,0,0,0,121.4,9.39a4.15,4.15,0,0,1,.65-8.25,5.19,5.19,0,0,1,.68.05,99.44,99.44,0,0,1,19.35,5.19,4.16,4.16,0,0,1,2.41,5.36A4.09,4.09,0,0,1,143,13.62a4.14,4.14,0,0,1-2.44.8Z"/><path class="cls-1" d="M172.79,35a4.11,4.11,0,0,1-2.89-1.18,90.63,90.63,0,0,0-14.38-11.4,4.15,4.15,0,0,1,4.47-7,98.52,98.52,0,0,1,15.7,12.45,4.15,4.15,0,0,1-2.9,7.13Z"/><path class="cls-1" d="M77.26,113.41a4.17,4.17,0,0,1-4.11-3.58,52.54,52.54,0,0,1,1.25-20.7,4.15,4.15,0,0,1,4-3.1,4.29,4.29,0,0,1,1.06.14,4.15,4.15,0,0,1,3,5.08,44.16,44.16,0,0,0-1.05,17.43,4.15,4.15,0,0,1-1.68,3.95,4.08,4.08,0,0,1-1.86.74,3.86,3.86,0,0,1-.58,0Z"/><path class="cls-1" d="M153.37,248.88a4.15,4.15,0,0,1-.23-8.3,144.44,144.44,0,0,0,18.54-2.29,4,4,0,0,1,.78-.08,4.16,4.16,0,0,1,2.42,7.53,4,4,0,0,1-1.65.71,152.43,152.43,0,0,1-19.61,2.42Z"/><path class="cls-1" d="M13.23,166.17a4.15,4.15,0,0,1-3.84-2.56,122.49,122.49,0,0,1-6.13-18.92,4.16,4.16,0,0,1,3.09-5,4.49,4.49,0,0,1,1-.11,4.14,4.14,0,0,1,4,3.21,114.39,114.39,0,0,0,5.71,17.63,4.12,4.12,0,0,1-1.39,5,4.31,4.31,0,0,1-.84.47,4.19,4.19,0,0,1-1.6.32Z"/><path class="cls-1" d="M193.2,67.1a4.15,4.15,0,0,1-3.95-2.88,71.17,71.17,0,0,0-7.74-16.38,4.17,4.17,0,0,1,1.26-5.74,4.17,4.17,0,0,1,5.74,1.26,79.69,79.69,0,0,1,8.65,18.31,4.15,4.15,0,0,1-1.52,4.64,4.1,4.1,0,0,1-1.16.59,4.23,4.23,0,0,1-1.28.2Z"/><path class="cls-1" d="M8,90.77a4.16,4.16,0,0,1-4-5.2A123.11,123.11,0,0,1,10.53,66.8a4.16,4.16,0,0,1,7.6,3.37A115.07,115.07,0,0,0,12,87.66,4.05,4.05,0,0,1,10.43,90,4.12,4.12,0,0,1,8,90.77Z"/><path class="cls-1" d="M62.26,224a4.16,4.16,0,0,1-2.32-.7,152.72,152.72,0,0,1-15.62-12.09,4.15,4.15,0,0,1-.37-5.86,4.16,4.16,0,0,1,5.87-.37,142.59,142.59,0,0,0,14.77,11.42,4.16,4.16,0,0,1,1.12,5.77,4,4,0,0,1-1,1,4.24,4.24,0,0,1-2.44.78Z"/><path class="cls-1" d="M134.17,248.75h-.31a153.21,153.21,0,0,1-19.57-2.69,4.15,4.15,0,0,1-3.24-4.9,4.17,4.17,0,0,1,4.07-3.32,4.67,4.67,0,0,1,.83.08,146.28,146.28,0,0,0,18.51,2.54,4.15,4.15,0,0,1,3.84,4.44,4.16,4.16,0,0,1-4.13,3.86Z"/><path class="cls-1" d="M33.53,198.64a4.15,4.15,0,0,1-3.13-1.42l-.87-1c-2.25-2.62-4.42-5.36-6.42-8.14-1.6-2.21-3.14-4.49-4.58-6.8a4.15,4.15,0,0,1,3.52-6.36,4.13,4.13,0,0,1,3.52,2c1.35,2.15,2.78,4.28,4.27,6.34,1.87,2.58,3.88,5.14,6,7.6l.82.94a4.16,4.16,0,0,1-.39,5.86,2.34,2.34,0,0,1-.31.24,4.07,4.07,0,0,1-2.42.79Z"/><path class="cls-1" d="M96.59,241.09a4.16,4.16,0,0,1-1.35-.23A152,152,0,0,1,77,233.25a4.16,4.16,0,0,1,1.86-7.88,4.08,4.08,0,0,1,1.84.43A143,143,0,0,0,97.94,233,4.16,4.16,0,0,1,99,240.3a4.2,4.2,0,0,1-2.44.79Z"/><path class="cls-1" d="M233.73,252.75c-10.86,0-15.86-8.84-20-17.88l-.91-2L210.89,234l-.23.14a150.87,150.87,0,0,1-18.3,7.4,4.15,4.15,0,1,1-2.6-7.89,143.81,143.81,0,0,0,14.11-5.52l3.84-1.74-57.24-28.42-.14,0a15.2,15.2,0,0,1-7.36-5.18,14.39,14.39,0,0,1-2.53-4.31l0-.11-22.33-43.66a15.28,15.28,0,0,1,6.65-20.57,15.5,15.5,0,0,1,7-1.67,14.83,14.83,0,0,1,3.15.33l4.63,1-2.52-4c-8.67-13.84-16.88-23-35.39-31.92-7.89-3.82-11.74-12.59-9-20.41,2-5.75,7.68-9.46,14.37-9.46a18.61,18.61,0,0,1,8,1.87c15.81,7.6,25.94,14.34,35,23.27l1.43,1.42L152.89,83a13.6,13.6,0,0,1,3.68-2.58,31.76,31.76,0,0,1,14-3.24A21.9,21.9,0,0,1,181.86,80l1,.63,1-.65c.47-.29,1-.57,1.46-.83A20.26,20.26,0,0,1,208.1,82l.74.65,1-.19a73.29,73.29,0,0,1,13.43-1.34c7,0,12.4,1.25,16.09,3.7l.09.07.1.05a20.1,20.1,0,0,1,8.74,8.76l27.59,53.93a32.58,32.58,0,0,1,3.35,10.93l0,.17,8.06,27.1.08.16c3.77,7.41,7.42,15.24,8.51,22.34,1.49,9.69-1.8,16.67-9.79,20.76L247.52,248.8C242.32,251.46,237.81,252.75,233.73,252.75ZM131.67,130.69a6.78,6.78,0,0,0-3.17.77,7,7,0,0,0-3,9.39l22.47,43.92a4.85,4.85,0,0,1,.25.61,5.81,5.81,0,0,0,1.14,2l.17.22a6.88,6.88,0,0,0,3.64,2.49,3.83,3.83,0,0,1,.71.27l61.42,30.5a4.17,4.17,0,0,1,1.86,1.83c1.11,2.18,2.11,4.39,3.09,6.52,4.31,9.49,7.37,15.26,13.51,15.26,2.7,0,6.06-1,10-3l38.55-19.72c9.28-4.75,6.08-15.48-2.59-32.42a4.26,4.26,0,0,1-.28-.7l-8.27-27.83A5,5,0,0,1,271,160a24.07,24.07,0,0,0-2.55-8.57L240.85,97.47a11.88,11.88,0,0,0-5.39-5.28,4.08,4.08,0,0,1-.57-.34c-1.28-.91-4.48-2.43-11.66-2.43a64.65,64.65,0,0,0-10.93,1l-2.82.51,1.45,2.47c1.8,3.08,3,5.5,3,5.52a1.86,1.86,0,0,1-.87,2.47,1.84,1.84,0,0,1-.8.18,1.88,1.88,0,0,1-1.67-1.06,75.05,75.05,0,0,0-6.13-10.35l-.07-.08-.28-.31a12.07,12.07,0,0,0-9.45-4.6,11.86,11.86,0,0,0-5.43,1.32,11.62,11.62,0,0,0-2.94,2.15l-1.18,1.17L186,91.2a79.41,79.41,0,0,1,5.35,9.26,1.85,1.85,0,0,1-3.33,1.6c0-.07-3.7-7.68-7.89-12.48l-.08-.1-.1-.08a4.11,4.11,0,0,1-.51-.56l-.06-.08-.19-.2-.36-.37a.76.76,0,0,1-.11-.14l-.14-.17-.2-.19c-1.67-1.4-4.44-2.17-7.81-2.17a24.33,24.33,0,0,0-9.4,1.93l-2.24,1,1.42,2,.72,1a48.42,48.42,0,0,1,4.06,6.34l4.16,8.15a4.15,4.15,0,0,1-1.8,5.58,4.23,4.23,0,0,1-1.91.46c-2,0-3-1-5.86-4.21l-.26-.33c-14.55-20.4-24.87-29-48-40.15A10.34,10.34,0,0,0,107,66.21c-3.08,0-5.7,1.59-6.54,3.94-1.33,3.75.75,8.21,4.74,10.14,25.2,12.12,33.82,25.71,46.9,48.7,1.29,2.25,12.25,25.9,21.24,45.47a4.16,4.16,0,0,1-3.77,5.89,4.35,4.35,0,0,1-1.25-.19L161.55,178a4.12,4.12,0,0,1-2.45-2.07l-21.2-41.44A7,7,0,0,0,131.67,130.69Z"/></g></g></svg>