<svg xmlns="http://www.w3.org/2000/svg" viewBox="0 0 139.21 283.15"><defs><style>.cls-1{fill:#231f20;}</style></defs><g id="Layer_2" data-name="Layer 2"><g id="Layer_3" data-name="Layer 3"><path class="cls-1" d="M67.92,283.15c-8.6,0-14.7-2-18.64-6.14-5.86-6.14-5.44-15.29-5-24.14.07-1.61.15-3.22.18-4.79l0-.69L4.69,193.67l-.1-.11a15.18,15.18,0,0,1-4.2-7.95,14.21,14.21,0,0,1-.29-5l0-.12v-49a15.31,15.31,0,0,1,15.29-15.29A15.15,15.15,0,0,1,24.3,119l3.17,2.28V80.9l-1.16-.54a42.11,42.11,0,1,1,36-.44l-1.17.58,0,1.3c.14,3.64.28,7.18.42,10.52l.14,3.43,2.92-1.81a20.15,20.15,0,0,1,10.69-3,20.39,20.39,0,0,1,18.41,11.79l.57,1.24,1.37-.08c.43,0,.85,0,1.27,0a20.39,20.39,0,0,1,18.93,13l.34.87.88.3a32.67,32.67,0,0,1,18.19,15.47l.06.11.07.1a20.13,20.13,0,0,1,3.77,11.76V206a32.69,32.69,0,0,1-2,11.26l-.06.16L132,245.18v.19c0,8.31-.33,16.94-2.59,23.76-3.09,9.3-9.2,14-18.18,14ZM15.41,124.48a7,7,0,0,0-7,7v49.33a4.62,4.62,0,0,1,0,.65,5.76,5.76,0,0,0,.11,2.29,2.21,2.21,0,0,1,0,.25,7,7,0,0,0,2.11,3.89,3.46,3.46,0,0,1,.51.57L52,243.56a4.16,4.16,0,0,1,.82,2.47c0,2.44-.11,4.87-.22,7.22-.34,7.43-.67,14.46,2.74,18,2.29,2.4,6.42,3.57,12.63,3.57h43.3c10.42,0,12.46-11,12.46-30a3.84,3.84,0,0,1,.07-.76l5.31-28.54a4.79,4.79,0,0,1,.21-.74A24.42,24.42,0,0,0,130.9,206V145.39a11.86,11.86,0,0,0-2.39-7.16,5.5,5.5,0,0,1-.36-.57,24.58,24.58,0,0,0-11.83-11.1l-3-1.33.22,3.29c.24,3.8.16,6.77.16,6.9a1.85,1.85,0,0,1-3.69-.11,74.83,74.83,0,0,0-.73-11.91l-.05-.29-.13-.27a4.26,4.26,0,0,1-.35-1,11.89,11.89,0,0,0-15.07-9.23l-1.66.49.24,1.72a80.25,80.25,0,0,1,.7,11.7,1.85,1.85,0,0,1-3.69-.09c0-.08.21-8.83-1.44-15.07l-.06-.22-.1-.2a4.07,4.07,0,0,1-.44-1.37,12,12,0,0,0-23.84,1.63v9.15a4.16,4.16,0,0,1-4.14,4.15c-.87,0-3.73-.31-4.33-4.27-.09-.57-.18-1.34-.27-2.36-.15-1.73-.32-4.29-.5-7.6-.31-5.49-.66-13.15-1-22.76-.61-15.4-1.12-31.22-1.17-33v-.18a8.07,8.07,0,0,0-16.14,0V183a4.14,4.14,0,0,1-2.55,3.83,4.19,4.19,0,0,1-1.6.32,4.1,4.1,0,0,1-2.92-1.2l-5.09-5a4.2,4.2,0,0,1-1.23-3V131.46A7,7,0,0,0,15.41,124.48ZM43.85,1.39A40.7,40.7,0,0,0,24.52,77.92l2.95,1.59V57.33L27,56.77a22.37,22.37,0,1,1,33.85-.12l-.51.59,0,.78c.2,5.93.41,11.95.62,17.8l.12,3.3L64,77.49a40.7,40.7,0,0,0-20.1-76.1Zm0,36.56a16.34,16.34,0,0,1,14.48,8.77l2.53,4.78,1.19-5.27a18.45,18.45,0,0,0,.48-4.13,18.68,18.68,0,1,0-36.89,4.12l1.2,5.27,2.52-4.78A16.36,16.36,0,0,1,43.85,38Z"/></g></g></svg>