<svg xmlns="http://www.w3.org/2000/svg" viewBox="0 0 216.51 296.58"><defs><style>.cls-1{fill:#231f20;}</style></defs><g id="Layer_2" data-name="Layer 2"><g id="Layer_2-2" data-name="Layer 2"><path class="cls-1" d="M63.11,104A11.37,11.37,0,0,1,52.66,88.22L75.18,35.33,64.71,30.87a1.84,1.84,0,0,1-.38-3.17L100.68.37A1.83,1.83,0,0,1,101.79,0a1.79,1.79,0,0,1,.72.15,1.84,1.84,0,0,1,1.11,1.47l5.46,44.89,0,.09a1.72,1.72,0,0,1,0,.39,1.85,1.85,0,0,1-1.85,1.85h0a2,2,0,0,1-.74-.15L96.09,44.23,73.57,97.12A11.35,11.35,0,0,1,63.11,104Zm6-75.31,9.22,3.92a1.82,1.82,0,0,1,1,1,1.84,1.84,0,0,1,0,1.42L56.05,89.66a7.7,7.7,0,0,0,4.06,10.07,7.67,7.67,0,0,0,10.06-4.06L93.42,41.09a1.85,1.85,0,0,1,1-1,1.81,1.81,0,0,1,.69-.14,1.79,1.79,0,0,1,.72.15L105.06,44,100.34,5.25Z"/><path class="cls-1" d="M7.34,221.07a2,2,0,0,1-.73-.14,1.88,1.88,0,0,1-1.11-1.48L0,174.31a1.85,1.85,0,0,1,1.84-2.07,1.79,1.79,0,0,1,.72.15L13,176.84,35.56,124A11.34,11.34,0,0,1,46,117a11.13,11.13,0,0,1,4.44.91,11.35,11.35,0,0,1,6,14.91L34,185.75l10.46,4.45a1.84,1.84,0,0,1,1.11,1.48,1.87,1.87,0,0,1-.72,1.7L8.45,220.7A1.87,1.87,0,0,1,7.34,221.07Zm1.44-5.24L40,192.35l-9.22-3.93a1.85,1.85,0,0,1-1-2.42l23.25-54.59a7.68,7.68,0,0,0-7-10.68A7.67,7.67,0,0,0,39,125.4L15.71,180A1.86,1.86,0,0,1,14,181.11h0a1.86,1.86,0,0,1-.72-.15L4.07,177Z"/><path class="cls-1" d="M145.22,296.58a37.48,37.48,0,0,1-9.3-1l-.31-.08-.32,0-.42,0a5.82,5.82,0,0,1-5.43-3.7,3.82,3.82,0,0,1-.18-.51c-25-91.65-37.06-97.9-51-105.13a80.57,80.57,0,0,1-9.82-5.73c-8.1-5.73-10.78-16.72-6.1-25a16.73,16.73,0,0,1,14.9-8.29A20.62,20.62,0,0,1,89.09,151c7.69,5.41,18.8,14,28.1,24.08l4.24,4.62-.79-6.22c-.18-1.49-.41-3-.66-4.39l0-.21-.08-.19c-12-29.4-17.63-58.62-21.76-79.95l-.86-4.46a20.21,20.21,0,0,1,3.42-16,16.25,16.25,0,0,1,11.56-6.65c.37,0,.76,0,1.14,0,9.48,0,14.94,10.56,16.88,20.44,2.22,11.36,4.25,18.37,7.51,25.85l1.15,2.65,2.08-2a6.91,6.91,0,0,1,4.93-1.9c8.47,0,15.15,3.5,18.32,9.58l.61,1.17,1.3-.1c.47,0,.93,0,1.39,0a20.43,20.43,0,0,1,18.88,12.85l.36.93,1,.26c10.32,2.79,17,7.11,20.38,13.2l.08.15.1.13c.34.42.79,1,1.27,1.52l.1.12c3,3.61,6.83,8.1,6.83,12.43V219.4c0,.12,0,.24,0,.37a104.68,104.68,0,0,1-2.76,15l0,.09-4.43,23.78v.19c0,8.31-.33,16.94-2.59,23.76-3.09,9.3-9.2,14-18.18,14Zm-68-141.12a8.53,8.53,0,0,0-7.66,4.07c-2.62,4.62-1,10.83,3.65,14.13A71.68,71.68,0,0,0,82,178.8c18,9.31,30.26,19.47,54.41,107.28l.31,1.12,1.13.28a29.55,29.55,0,0,0,7.34.79h43.3c10.42,0,12.46-11,12.46-30a3.84,3.84,0,0,1,.07-.76l4.53-24.37c0-.14.06-.28.1-.42a94.45,94.45,0,0,0,2.52-13.37V158.77l-.11-.32c-.51-1.47-2.28-3.74-4.77-6.7-.77-.91-1.43-1.69-2-2.4a3.79,3.79,0,0,1-.36-.56c-2.12-4.07-6.92-7.11-14.69-9.29l-2.68-.75.14,2.78a24.74,24.74,0,0,1-.52,7.09,1.86,1.86,0,0,1-1.78,1.37,2.07,2.07,0,0,1-.49-.07,1.85,1.85,0,0,1-1.3-2.25c.08-.31,1.77-7.28-2-16.42l-.07-.18-.11-.16a11.92,11.92,0,0,0-13.27-4.9l-1.64.48.22,1.7a29,29,0,0,1-.68,11.77,1.86,1.86,0,0,1-1.75,1.27,2,2,0,0,1-.59-.1,1.86,1.86,0,0,1-1.17-2.33c.2-.61,1.81-6.05-.18-13.88l-.06-.25-.13-.23a4.22,4.22,0,0,1-.5-1.46c0-.22-.07-.44-.11-.65l0-.13-.05-.16c-.26-.72-.55-1.48-.88-2.24l-.06-.15-.08-.13c-1.45-2.32-4.08-3.84-7.6-4.37l-2.2-.33-.12,2.73c-.12,3-.26,6.35-2.42,8.87a4.13,4.13,0,0,1-3.16,1.46,3,3,0,0,1-.42,0,4.16,4.16,0,0,1-3.22-2.14c-8.67-15.82-12-24.87-15.32-42.1-1.31-6.65-4.82-13.72-8.73-13.72H113a8.08,8.08,0,0,0-5.69,3.35,11.92,11.92,0,0,0-1.92,9.45l.87,4.47c4.09,21.16,9.69,50.13,21.53,79a3.86,3.86,0,0,1,.24.8c2.36,12.51,2.09,22-.75,25.91a4.14,4.14,0,0,1-3.36,1.74h-.12a4.15,4.15,0,0,1-3.4-1.93c-7-11.06-19.85-23.44-36.09-34.85A12.31,12.31,0,0,0,77.19,155.46Z"/></g></g></svg>